<mxfile host="" modified="2020-06-05T23:11:14.754Z" agent="5.0 (Windows NT 10.0; Win64; x64) AppleWebKit/537.36 (KHTML, like Gecko) Code/1.45.1 Chrome/78.0.3904.130 Electron/7.2.4 Safari/537.36" etag="-73ufqr7XjiSCh6EEeRD" version="13.1.3">
    <diagram id="6hGFLwfOUW9BJ-s0fimq" name="Page-1">
        <mxGraphModel dx="1058" dy="1649" grid="1" gridSize="10" guides="1" tooltips="1" connect="1" arrows="1" fold="1" page="1" pageScale="1" pageWidth="827" pageHeight="1169" math="0" shadow="0">
            <root>
                <mxCell id="0"/>
                <mxCell id="1" parent="0"/>
                <mxCell id="2" value="" style="whiteSpace=wrap;html=1;aspect=fixed;" parent="1" vertex="1">
                    <mxGeometry x="10" y="90" width="230" height="230" as="geometry"/>
                </mxCell>
                <mxCell id="5" value="&lt;div style=&quot;text-align: left&quot;&gt;origin:&amp;nbsp;&lt;b&gt;&lt;font color=&quot;#66cc00&quot;&gt;fabienDaou.github.io&lt;/font&gt;&lt;/b&gt;&lt;/div&gt;&lt;div style=&quot;text-align: left&quot;&gt;&lt;span&gt;Connect to Github OAuth&lt;/span&gt;&lt;br&gt;&lt;/div&gt;" style="whiteSpace=wrap;html=1;aspect=fixed;" parent="1" vertex="1">
                    <mxGeometry x="45" y="150" width="160" height="160" as="geometry"/>
                </mxCell>
                <mxCell id="6" value="origin:&lt;b&gt;&amp;nbsp;&lt;/b&gt;&lt;b&gt;&lt;font color=&quot;#b5739d&quot;&gt;nkt.herokuapp.com&lt;/font&gt;&lt;/b&gt;" style="text;html=1;strokeColor=none;fillColor=none;align=center;verticalAlign=middle;whiteSpace=wrap;rounded=0;" parent="1" vertex="1">
                    <mxGeometry x="30" y="100" width="190" height="20" as="geometry"/>
                </mxCell>
                <mxCell id="8" value="iframe" style="text;html=1;strokeColor=none;fillColor=none;align=center;verticalAlign=middle;whiteSpace=wrap;rounded=0;" parent="1" vertex="1">
                    <mxGeometry x="105" y="160" width="40" height="20" as="geometry"/>
                </mxCell>
                <mxCell id="10" value="" style="rounded=0;whiteSpace=wrap;html=1;" parent="1" vertex="1">
                    <mxGeometry x="760" y="120" width="170" height="290" as="geometry"/>
                </mxCell>
                <mxCell id="11" value="&lt;b&gt;github.com&lt;/b&gt;" style="text;html=1;strokeColor=none;fillColor=none;align=center;verticalAlign=middle;whiteSpace=wrap;rounded=0;" parent="1" vertex="1">
                    <mxGeometry x="807.5" y="130" width="75" height="20" as="geometry"/>
                </mxCell>
                <mxCell id="12" value="/login/oauth/authorize" style="rounded=1;whiteSpace=wrap;html=1;" parent="1" vertex="1">
                    <mxGeometry x="750" y="160" width="170" height="60" as="geometry"/>
                </mxCell>
                <mxCell id="13" value="/login/oauth/access_token" style="rounded=1;whiteSpace=wrap;html=1;" parent="1" vertex="1">
                    <mxGeometry x="750" y="330" width="170" height="60" as="geometry"/>
                </mxCell>
                <mxCell id="14" value="" style="endArrow=none;html=1;exitX=1;exitY=0.25;exitDx=0;exitDy=0;entryX=0;entryY=0.5;entryDx=0;entryDy=0;startArrow=none;startFill=0;endFill=0;" parent="1" source="5" target="12" edge="1">
                    <mxGeometry width="50" height="50" relative="1" as="geometry">
                        <mxPoint x="380" y="300" as="sourcePoint"/>
                        <mxPoint x="430" y="250" as="targetPoint"/>
                    </mxGeometry>
                </mxCell>
                <mxCell id="15" value="" style="rounded=0;whiteSpace=wrap;html=1;" parent="1" vertex="1">
                    <mxGeometry x="380" y="290" width="170" height="400" as="geometry"/>
                </mxCell>
                <mxCell id="16" value="&lt;b&gt;Azure functions&lt;/b&gt;" style="text;html=1;strokeColor=none;fillColor=none;align=center;verticalAlign=middle;whiteSpace=wrap;rounded=0;" parent="1" vertex="1">
                    <mxGeometry x="405" y="300" width="120" height="20" as="geometry"/>
                </mxCell>
                <mxCell id="17" value="1. Display github login in iframe to get redirected with code" style="text;html=1;strokeColor=#001DBC;fillColor=#0050ef;align=center;verticalAlign=middle;whiteSpace=wrap;rounded=0;fontColor=#ffffff;" parent="1" vertex="1">
                    <mxGeometry x="380" y="160" width="325" height="20" as="geometry"/>
                </mxCell>
                <mxCell id="18" value="" style="endArrow=none;html=1;entryX=0.5;entryY=1;entryDx=0;entryDy=0;exitX=0;exitY=0.5;exitDx=0;exitDy=0;" parent="1" source="19" target="5" edge="1">
                    <mxGeometry width="50" height="50" relative="1" as="geometry">
                        <mxPoint x="380" y="330" as="sourcePoint"/>
                        <mxPoint x="430" y="280" as="targetPoint"/>
                        <Array as="points">
                            <mxPoint x="125" y="360"/>
                        </Array>
                    </mxGeometry>
                </mxCell>
                <mxCell id="19" value="githuboauth function" style="rounded=1;whiteSpace=wrap;html=1;" parent="1" vertex="1">
                    <mxGeometry x="370" y="330" width="190" height="60" as="geometry"/>
                </mxCell>
                <mxCell id="20" value="2. Forward code to trade it against access token" style="text;html=1;strokeColor=#001DBC;fillColor=#0050ef;align=center;verticalAlign=middle;whiteSpace=wrap;rounded=0;fontColor=#ffffff;" parent="1" vertex="1">
                    <mxGeometry x="170" y="370" width="170" height="30" as="geometry"/>
                </mxCell>
                <mxCell id="21" value="" style="endArrow=none;html=1;entryX=1;entryY=0.5;entryDx=0;entryDy=0;exitX=0;exitY=0.5;exitDx=0;exitDy=0;" parent="1" source="13" target="19" edge="1">
                    <mxGeometry width="50" height="50" relative="1" as="geometry">
                        <mxPoint x="380" y="330" as="sourcePoint"/>
                        <mxPoint x="430" y="280" as="targetPoint"/>
                        <Array as="points">
                            <mxPoint x="600" y="360"/>
                        </Array>
                    </mxGeometry>
                </mxCell>
                <mxCell id="22" value="3. Trade code for access token" style="text;html=1;strokeColor=#001DBC;fillColor=#0050ef;align=center;verticalAlign=middle;whiteSpace=wrap;rounded=0;fontColor=#ffffff;" parent="1" vertex="1">
                    <mxGeometry x="570" y="370" width="170" height="20" as="geometry"/>
                </mxCell>
                <mxCell id="25" value="4. Store token in localStorage" style="text;html=1;strokeColor=#001DBC;fillColor=#0050ef;align=center;verticalAlign=middle;whiteSpace=wrap;rounded=0;fontColor=#ffffff;" parent="1" vertex="1">
                    <mxGeometry x="60" y="260" width="130" height="40" as="geometry"/>
                </mxCell>
                <mxCell id="26" value="" style="whiteSpace=wrap;html=1;aspect=fixed;" parent="1" vertex="1">
                    <mxGeometry x="10" y="450" width="230" height="230" as="geometry"/>
                </mxCell>
                <mxCell id="27" value="&lt;div style=&quot;text-align: left&quot;&gt;&lt;/div&gt;&lt;div style=&quot;text-align: left&quot;&gt;origin:&amp;nbsp;&lt;b&gt;&lt;font color=&quot;#66cc00&quot;&gt;fabienDaou.github.io&lt;/font&gt;&lt;/b&gt;&lt;/div&gt;&lt;span&gt;&lt;div style=&quot;text-align: left&quot;&gt;Apply github changes&lt;/div&gt;&lt;/span&gt;&lt;div style=&quot;text-align: left&quot;&gt;&lt;br&gt;&lt;/div&gt;" style="whiteSpace=wrap;html=1;aspect=fixed;" parent="1" vertex="1">
                    <mxGeometry x="45" y="510" width="160" height="160" as="geometry"/>
                </mxCell>
                <mxCell id="28" value="origin: &lt;b&gt;&lt;font color=&quot;#b5739d&quot;&gt;nkt.herokuapp.com&lt;/font&gt;&lt;/b&gt;" style="text;html=1;strokeColor=none;fillColor=none;align=center;verticalAlign=middle;whiteSpace=wrap;rounded=0;" parent="1" vertex="1">
                    <mxGeometry x="30" y="460" width="190" height="20" as="geometry"/>
                </mxCell>
                <mxCell id="29" value="iframe" style="text;html=1;strokeColor=none;fillColor=none;align=center;verticalAlign=middle;whiteSpace=wrap;rounded=0;" parent="1" vertex="1">
                    <mxGeometry x="105" y="520" width="40" height="20" as="geometry"/>
                </mxCell>
                <mxCell id="30" value="1. Use access token for api calls" style="text;html=1;strokeColor=#001DBC;fillColor=#0050ef;align=center;verticalAlign=middle;whiteSpace=wrap;rounded=0;fontColor=#ffffff;" parent="1" vertex="1">
                    <mxGeometry x="60" y="620" width="130" height="40" as="geometry"/>
                </mxCell>
                <mxCell id="31" value="commit function" style="rounded=1;whiteSpace=wrap;html=1;" parent="1" vertex="1">
                    <mxGeometry x="370" y="525" width="190" height="60" as="geometry"/>
                </mxCell>
                <mxCell id="32" value="delete function" style="rounded=1;whiteSpace=wrap;html=1;" parent="1" vertex="1">
                    <mxGeometry x="370" y="600" width="190" height="60" as="geometry"/>
                </mxCell>
                <mxCell id="33" value="" style="endArrow=none;html=1;exitX=1;exitY=0.5;exitDx=0;exitDy=0;entryX=0;entryY=0.5;entryDx=0;entryDy=0;" parent="1" source="27" target="31" edge="1">
                    <mxGeometry width="50" height="50" relative="1" as="geometry">
                        <mxPoint x="380" y="590" as="sourcePoint"/>
                        <mxPoint x="330" y="600" as="targetPoint"/>
                        <Array as="points">
                            <mxPoint x="340" y="590"/>
                            <mxPoint x="340" y="555"/>
                        </Array>
                    </mxGeometry>
                </mxCell>
                <mxCell id="34" value="" style="endArrow=none;html=1;entryX=0;entryY=0.5;entryDx=0;entryDy=0;exitX=1;exitY=0.5;exitDx=0;exitDy=0;" parent="1" source="27" target="32" edge="1">
                    <mxGeometry width="50" height="50" relative="1" as="geometry">
                        <mxPoint x="220" y="600" as="sourcePoint"/>
                        <mxPoint x="430" y="540" as="targetPoint"/>
                        <Array as="points">
                            <mxPoint x="340" y="590"/>
                            <mxPoint x="340" y="630"/>
                        </Array>
                    </mxGeometry>
                </mxCell>
                <mxCell id="35" value="2. Clone repository and push changes" style="text;html=1;strokeColor=#001DBC;fillColor=#0050ef;align=center;verticalAlign=middle;whiteSpace=wrap;rounded=0;fontColor=#ffffff;" parent="1" vertex="1">
                    <mxGeometry x="580" y="572.5" width="130" height="35" as="geometry"/>
                </mxCell>
                <mxCell id="36" value="" style="whiteSpace=wrap;html=1;aspect=fixed;" parent="1" vertex="1">
                    <mxGeometry x="10" y="770" width="230" height="230" as="geometry"/>
                </mxCell>
                <mxCell id="37" value="&lt;div style=&quot;text-align: left&quot;&gt;origin:&amp;nbsp;&lt;b&gt;&lt;font color=&quot;#66cc00&quot;&gt;fabienDaou.github.io&lt;/font&gt;&lt;/b&gt;&lt;/div&gt;&lt;div style=&quot;text-align: left&quot;&gt;&lt;br&gt;&lt;/div&gt;&lt;div style=&quot;text-align: left&quot;&gt;&lt;br&gt;&lt;/div&gt;" style="whiteSpace=wrap;html=1;aspect=fixed;" parent="1" vertex="1">
                    <mxGeometry x="45" y="830" width="160" height="160" as="geometry"/>
                </mxCell>
                <mxCell id="38" value="origin:&amp;nbsp;&lt;b&gt;&lt;font color=&quot;#b5739d&quot;&gt;nkt.herokuapp.com&lt;/font&gt;&lt;/b&gt;" style="text;html=1;strokeColor=none;fillColor=none;align=center;verticalAlign=middle;whiteSpace=wrap;rounded=0;" parent="1" vertex="1">
                    <mxGeometry x="30" y="780" width="190" height="20" as="geometry"/>
                </mxCell>
                <mxCell id="39" value="iframe" style="text;html=1;strokeColor=none;fillColor=none;align=center;verticalAlign=middle;whiteSpace=wrap;rounded=0;" parent="1" vertex="1">
                    <mxGeometry x="105" y="840" width="40" height="20" as="geometry"/>
                </mxCell>
                <mxCell id="40" value="1. Use access token for api calls" style="text;html=1;strokeColor=#001DBC;fillColor=#0050ef;align=center;verticalAlign=middle;whiteSpace=wrap;rounded=0;fontColor=#ffffff;" parent="1" vertex="1">
                    <mxGeometry x="60" y="940" width="130" height="40" as="geometry"/>
                </mxCell>
                <mxCell id="41" value="CORS:&amp;nbsp;&lt;b style=&quot;text-align: left&quot;&gt;&lt;font color=&quot;#b5739d&quot;&gt;fabienDaou.github.io&lt;/font&gt;&lt;/b&gt;" style="text;html=1;strokeColor=none;fillColor=none;align=center;verticalAlign=middle;whiteSpace=wrap;rounded=0;" parent="1" vertex="1">
                    <mxGeometry x="373.75" y="500" width="182.5" height="20" as="geometry"/>
                </mxCell>
                <mxCell id="43" value="GraphQL" style="rounded=0;whiteSpace=wrap;html=1;" parent="1" vertex="1">
                    <mxGeometry x="380" y="765" width="170" height="290" as="geometry"/>
                </mxCell>
                <mxCell id="44" value="&lt;b&gt;api.github.com&lt;/b&gt;" style="text;html=1;strokeColor=none;fillColor=none;align=center;verticalAlign=middle;whiteSpace=wrap;rounded=0;" parent="1" vertex="1">
                    <mxGeometry x="427.5" y="775" width="75" height="20" as="geometry"/>
                </mxCell>
                <mxCell id="47" value="" style="endArrow=none;html=1;exitX=1;exitY=0.5;exitDx=0;exitDy=0;entryX=0;entryY=0.5;entryDx=0;entryDy=0;" parent="1" source="37" target="43" edge="1">
                    <mxGeometry width="50" height="50" relative="1" as="geometry">
                        <mxPoint x="470" y="790" as="sourcePoint"/>
                        <mxPoint x="520" y="740" as="targetPoint"/>
                    </mxGeometry>
                </mxCell>
                <mxCell id="48" value="&lt;div style=&quot;text-align: left ; font-size: 14px&quot;&gt;&lt;font style=&quot;font-size: 14px&quot;&gt;&lt;b&gt;We want a to use Github as our access control for nkt plugins. Every users willing to access plugins from a private repository needs to be invited as a collaborator.&lt;/b&gt;&lt;/font&gt;&lt;/div&gt;&lt;div style=&quot;text-align: left ; font-size: 14px&quot;&gt;&lt;span&gt;&lt;font style=&quot;font-size: 14px&quot;&gt;&lt;b&gt;Therefore we need every chat user to connect to github and allow nkt application to know about the user's repository. This is done with OAuth protocol.&lt;/b&gt;&lt;/font&gt;&lt;/span&gt;&lt;/div&gt;&lt;div style=&quot;text-align: left ; font-size: 14px&quot;&gt;&lt;span&gt;&lt;font style=&quot;font-size: 14px&quot;&gt;&lt;b&gt;We also did not want to create a dedicated server managing access tokens.&lt;/b&gt;&lt;/font&gt;&lt;/span&gt;&lt;/div&gt;&lt;div style=&quot;text-align: left ; font-size: 14px&quot;&gt;&lt;span&gt;&lt;font style=&quot;font-size: 14px&quot;&gt;&lt;b&gt;When negotiation is successful, the access token is stored in the local storage. The issue is that a rogue plugin could just access it at will.&lt;/b&gt;&lt;/font&gt;&lt;/span&gt;&lt;/div&gt;&lt;div style=&quot;text-align: left ; font-size: 14px&quot;&gt;&lt;span&gt;&lt;font style=&quot;font-size: 14px&quot;&gt;&lt;b&gt;We then need to isolate this local storage from the code of the plugins.&lt;/b&gt;&lt;/font&gt;&lt;/span&gt;&lt;/div&gt;&lt;div style=&quot;text-align: left ; font-size: 14px&quot;&gt;&lt;font style=&quot;font-size: 14px&quot;&gt;&lt;b&gt;This is done by integrating an iframe with a different origin. This iframe is responsible to allow the user to connect to github and load, edit, delete plugins.&lt;/b&gt;&lt;/font&gt;&lt;/div&gt;&lt;div style=&quot;text-align: left ; font-size: 14px&quot;&gt;&lt;font style=&quot;font-size: 14px&quot;&gt;&lt;b&gt;Plugins are loaded in the iframe and then passed to the parent window via postmessage.&lt;/b&gt;&lt;/font&gt;&lt;/div&gt;" style="text;html=1;strokeColor=none;fillColor=none;align=center;verticalAlign=middle;whiteSpace=wrap;rounded=0;" parent="1" vertex="1">
                    <mxGeometry x="145" y="-90" width="840" height="140" as="geometry"/>
                </mxCell>
                <mxCell id="49" value="2. Load plugins" style="text;html=1;strokeColor=#001DBC;fillColor=#0050ef;align=center;verticalAlign=middle;whiteSpace=wrap;rounded=0;fontColor=#ffffff;" parent="1" vertex="1">
                    <mxGeometry x="250" y="920" width="110" height="20" as="geometry"/>
                </mxCell>
            </root>
        </mxGraphModel>
    </diagram>
</mxfile>